<?xml version="1.0" standalone="no"?><!DOCTYPE svg PUBLIC "-//W3C//DTD SVG 1.1//EN" "http://www.w3.org/Graphics/SVG/1.1/DTD/svg11.dtd"><svg t="1633946279914" class="icon" viewBox="0 0 1024 1024" version="1.1" xmlns="http://www.w3.org/2000/svg" p-id="1799" xmlns:xlink="http://www.w3.org/1999/xlink" width="200" height="200"><defs><style type="text/css"></style></defs><path d="M375.531191 484.57719H208.413359c-60.007561 0-108.400756-48.393195-108.400757-108.400756v-167.763075c0-60.007561 48.393195-108.400756 108.400757-108.400757h167.117832C435.538752 100.012602 483.931947 148.405797 483.931947 208.413359v167.117832c0 60.007561-48.393195 109.045999-108.400756 109.045999zM208.413359 154.858223c-29.681159 0-53.555135 23.873976-53.555136 53.555136v167.117832c0 29.681159 23.873976 53.555135 53.555136 53.555135h167.117832c29.681159 0 53.555135-23.873976 53.555135-53.555135V208.413359c0-29.681159-23.873976-53.555135-53.555135-53.555136H208.413359zM806.553245 123.241336l94.850662 94.850661c40.650284 40.650284 40.650284 107.110271 0 148.405798L806.553245 461.348456c-40.650284 40.650284-107.110271 40.650284-148.405797 0L563.296786 366.497795c-40.650284-40.650284-40.650284-107.110271 0-148.405798L658.147448 123.241336c40.650284-41.295526 107.110271-41.295526 148.405797 0zM384.564587 923.987398H199.379962c-54.845621 0-99.36736-44.521739-99.36736-99.36736V639.435413c0-54.845621 44.521739-99.36736 99.36736-99.36736h185.184625c54.845621 0 99.36736 44.521739 99.36736 99.36736v185.184625c0 54.845621-44.521739 99.36736-99.36736 99.36736z m-185.184625-329.073724c-24.519219 0-44.521739 20.00252-44.521739 44.521739v185.184625c0 24.519219 20.00252 44.521739 44.521739 44.521739h185.184625c24.519219 0 44.521739-20.00252 44.521739-44.521739V639.435413c0-24.519219-20.00252-44.521739-44.521739-44.521739H199.379962zM819.458097 923.987398h-174.215501c-58.071834 0-105.174543-47.10271-105.174543-105.174544v-174.215501c0-58.071834 47.10271-105.174543 105.174543-105.174543h174.215501c58.071834 0 105.174543 47.10271 105.174543 105.174543v174.215501c-0.645243 58.071834-47.747952 105.174543-105.174543 105.174544z m-174.215501-329.073724c-27.745432 0-50.328922 22.583491-50.328922 50.328922v174.215501c0 27.745432 22.583491 50.328922 50.328922 50.328923h174.215501c27.745432 0 50.328922-22.583491 50.328923-50.328923v-174.215501c0-27.745432-22.583491-50.328922-50.328923-50.328922h-174.215501z" fill="#e8989a" p-id="1800"></path></svg>