<?xml version="1.0" standalone="no"?><!DOCTYPE svg PUBLIC "-//W3C//DTD SVG 1.1//EN" "http://www.w3.org/Graphics/SVG/1.1/DTD/svg11.dtd"><svg t="1633946008655" class="icon" viewBox="0 0 1024 1024" version="1.1" xmlns="http://www.w3.org/2000/svg" p-id="833" xmlns:xlink="http://www.w3.org/1999/xlink" width="200" height="200"><defs><style type="text/css"></style></defs><path d="M993.754074 514.085926c-7.452444 0-14.866963-2.901333-20.442074-8.685037L635.866074 156.425481c-32.919704-34.019556-77.12237-52.773926-124.472889-52.773925s-91.534222 18.75437-124.453926 52.773925L49.493333 505.419852a28.444444 28.444444 0 1 1-40.903111-39.537778L346.055111 116.887704c43.728593-45.226667 102.437926-70.125037 165.338074-70.125037s121.647407 24.89837 165.357037 70.125037l337.445926 348.99437a28.444444 28.444444 0 0 1-20.442074 48.203852z" fill="#707070" p-id="834"></path><path d="M775.016296 953.325037H256.32237c-86.679704 0-157.184-70.523259-157.184-157.184V517.632a28.444444 28.444444 0 1 1 56.888889 0v278.509037a100.408889 100.408889 0 0 0 100.295111 100.295111H775.016296a91.875556 91.875556 0 0 0 91.761778-91.780741v-42.230518a28.444444 28.444444 0 0 1 56.888889 0v42.230518c0 81.995852-66.692741 148.66963-148.650667 148.66963z" fill="#707070" p-id="835"></path><path d="M627.52237 682.211556H414.644148a28.444444 28.444444 0 1 1 0-56.888889h212.878222a28.444444 28.444444 0 0 1 0 56.888889z" fill="#707070" p-id="836"></path></svg>